<svg width="2598" xmlns="http://www.w3.org/2000/svg" height="572" id="screenshot-55192aa2-916b-803d-8008-15c07b97fd76" viewBox="0 0 2598 572" xmlns:xlink="http://www.w3.org/1999/xlink" fill="none" version="1.1"><g id="shape-55192aa2-916b-803d-8008-15c07b97fd76"><defs><clipPath id="frame-clip-55192aa2-916b-803d-8008-15c07b97fd76-render-1" class="frame-clip frame-clip-def"><rect rx="0" ry="0" x="0" y="0" width="2598" height="572" transform="matrix(1.000000, 0.000000, 0.000000, 1.000000, 0.000000, 0.000000)"/></clipPath></defs><g class="frame-container-wrapper"><g class="frame-container-blur"><g class="frame-container-shadows"><g clip-path="url(#frame-clip-55192aa2-916b-803d-8008-15c07b97fd76-render-1)" fill="none"><g class="fills" id="fills-55192aa2-916b-803d-8008-15c07b97fd76"><rect width="2598" height="572" class="frame-background" x="0" transform="matrix(1.000000, 0.000000, 0.000000, 1.000000, 0.000000, 0.000000)" style="fill: rgb(255, 255, 255); fill-opacity: 1;" ry="0" rx="0" y="0"/></g><g class="frame-children"><g id="shape-55192aa2-916b-803d-8008-15bcfdda10c7"><g class="fills" id="fills-55192aa2-916b-803d-8008-15bcfdda10c7"><rect rx="0" ry="0" x="127.00000000000011" y="92.99999999999994" transform="matrix(1.000000, 0.000000, 0.000000, 1.000000, 0.000000, 0.000000)" width="50" height="400.00000000000006" style="fill: rgb(175, 176, 179); fill-opacity: 1;"/></g></g><g id="shape-55192aa2-916b-803d-8008-15bd2a714838"><g class="fills" id="fills-55192aa2-916b-803d-8008-15bd2a714838"><rect rx="0" ry="0" x="277.0000000000001" y="142.9999999999999" transform="matrix(1.000000, 0.000000, 0.000000, 1.000000, 0.000000, 0.000000)" width="50" height="350" style="fill: rgb(143, 144, 146); fill-opacity: 1;"/></g></g><g id="shape-55192aa2-916b-803d-8008-15bd41e4e9c5"><g class="fills" id="fills-55192aa2-916b-803d-8008-15bd41e4e9c5"><rect rx="0" ry="0" x="527" y="193.00000000000023" transform="matrix(1.000000, 0.000000, 0.000000, 1.000000, 0.000000, 0.000000)" width="50" height="299.9999999999999" style="fill: rgb(175, 176, 179); fill-opacity: 1;"/></g></g><g id="shape-55192aa2-916b-803d-8008-15bd6a83ce08"><g class="fills" id="fills-55192aa2-916b-803d-8008-15bd6a83ce08"><rect rx="0" ry="0" x="627" y="293" transform="matrix(1.000000, 0.000000, 0.000000, 1.000000, 0.000000, 0.000000)" width="50" height="150" style="fill: rgb(175, 176, 179); fill-opacity: 1;"/></g></g><g id="shape-55192aa2-916b-803d-8008-15bd80518d0a"><g class="fills" id="fills-55192aa2-916b-803d-8008-15bd80518d0a"><rect rx="0" ry="0" x="677" y="443" transform="matrix(1.000000, 0.000000, 0.000000, 1.000000, 0.000000, 0.000000)" width="150" height="50" style="fill: rgb(175, 176, 179); fill-opacity: 1;"/></g></g><g id="shape-55192aa2-916b-803d-8008-15bd98a3d984"><g class="fills" id="fills-55192aa2-916b-803d-8008-15bd98a3d984"><rect rx="0" ry="0" x="677" y="243" transform="matrix(1.000000, 0.000000, 0.000000, 1.000000, 0.000000, 0.000000)" width="150" height="50" style="fill: rgb(175, 176, 179); fill-opacity: 1;"/></g></g><g id="shape-55192aa2-916b-803d-8008-15bdfbd265bd"><g class="fills" id="fills-55192aa2-916b-803d-8008-15bdfbd265bd"><rect rx="0" ry="0" x="1027" y="293" transform="matrix(1.000000, 0.000000, 0.000000, 1.000000, 0.000000, 0.000000)" width="50" height="150.0000000000001" style="fill: rgb(175, 176, 179); fill-opacity: 1;"/></g></g><g id="shape-55192aa2-916b-803d-8008-15be0544e155"><g class="fills" id="fills-55192aa2-916b-803d-8008-15be0544e155"><rect rx="0" ry="0" x="1227" y="293" transform="matrix(1.000000, 0.000000, 0.000000, 1.000000, 0.000000, 0.000000)" width="50" height="150.0000000000001" style="fill: rgb(175, 176, 179); fill-opacity: 1;"/></g></g><g id="shape-55192aa2-916b-803d-8008-15bdfbd265be"><g class="fills" id="fills-55192aa2-916b-803d-8008-15bdfbd265be"><rect rx="0" ry="0" x="1077" y="443" transform="matrix(1.000000, 0.000000, 0.000000, 1.000000, 0.000000, 0.000000)" width="150" height="50" style="fill: rgb(175, 176, 179); fill-opacity: 1;"/></g></g><g id="shape-55192aa2-916b-803d-8008-15bdfbd265bf"><g class="fills" id="fills-55192aa2-916b-803d-8008-15bdfbd265bf"><rect rx="0" ry="0" x="1077" y="243" transform="matrix(1.000000, 0.000000, 0.000000, 1.000000, 0.000000, 0.000000)" width="150" height="50" style="fill: rgb(175, 176, 179); fill-opacity: 1;"/></g></g><g id="shape-55192aa2-916b-803d-8008-15bee1160040"><g class="fills" id="fills-55192aa2-916b-803d-8008-15bee1160040"><rect rx="0" ry="0" x="2052" y="292.9999999999998" transform="matrix(1.000000, 0.000000, 0.000000, 1.000000, 0.000000, 0.000000)" width="50" height="150" style="fill: rgb(175, 176, 179); fill-opacity: 1;"/></g></g><g id="shape-55192aa2-916b-803d-8008-15bf2da4e1c6"><g class="fills" id="fills-55192aa2-916b-803d-8008-15bf2da4e1c6"><rect rx="0" ry="0" x="2252" y="292.9999999999998" transform="matrix(1.000000, 0.000000, 0.000000, 1.000000, 0.000000, 0.000000)" width="50" height="100" style="fill: rgb(175, 176, 179); fill-opacity: 1;"/></g></g><g id="shape-55192aa2-916b-803d-8008-15bf338b1b61"><g class="fills" id="fills-55192aa2-916b-803d-8008-15bf338b1b61"><rect rx="0" ry="0" x="2102" y="342.9999999999998" transform="matrix(1.000000, 0.000000, 0.000000, 1.000000, 0.000000, 0.000000)" width="150" height="50" style="fill: rgb(175, 176, 179); fill-opacity: 1;"/></g></g><g id="shape-55192aa2-916b-803d-8008-15bee1160042"><g class="fills" id="fills-55192aa2-916b-803d-8008-15bee1160042"><rect rx="0" ry="0" x="2102" y="442.9999999999998" transform="matrix(1.000000, 0.000000, 0.000000, 1.000000, 0.000000, 0.000000)" width="150" height="50" style="fill: rgb(175, 176, 179); fill-opacity: 1;"/></g></g><g id="shape-55192aa2-916b-803d-8008-15bee1160043"><g class="fills" id="fills-55192aa2-916b-803d-8008-15bee1160043"><rect rx="0" ry="0" x="2102" y="242.99999999999977" transform="matrix(1.000000, 0.000000, 0.000000, 1.000000, 0.000000, 0.000000)" width="150" height="50" style="fill: rgb(175, 176, 179); fill-opacity: 1;"/></g></g><g id="shape-55192aa2-916b-803d-8008-15bd53596788"><g class="fills" id="fills-55192aa2-916b-803d-8008-15bd53596788"><rect rx="25" ry="25" x="527" y="93" transform="matrix(1.000000, 0.000000, 0.000000, 1.000000, 0.000000, 0.000000)" width="50" height="50" style="fill: rgb(197, 197, 197); fill-opacity: 1;"/></g></g><g id="shape-55192aa2-916b-803d-8008-15bdc870c1e4"><g class="fills" id="fills-55192aa2-916b-803d-8008-15bdc870c1e4"><rect rx="25" ry="25" x="927" y="293" transform="matrix(1.000000, 0.000000, 0.000000, 1.000000, 0.000000, 0.000000)" width="50" height="50" style="fill: rgb(197, 197, 197); fill-opacity: 1;"/></g></g><g id="shape-55192aa2-916b-803d-8008-15bde06bee5f"><g class="fills" id="fills-55192aa2-916b-803d-8008-15bde06bee5f"><rect rx="25" ry="25" x="977" y="243" transform="matrix(1.000000, 0.000000, 0.000000, 1.000000, 0.000000, 0.000000)" width="50" height="50" style="fill: rgb(197, 197, 197); fill-opacity: 1;"/></g></g><g id="shape-55192aa2-916b-803d-8008-15be80ccd1ea"><g class="fills" id="fills-55192aa2-916b-803d-8008-15be80ccd1ea"><rect rx="25" ry="25" x="1802" y="442.9999999999999" transform="matrix(1.000000, 0.000000, 0.000000, 1.000000, 0.000000, 0.000000)" width="50" height="50" style="fill: rgb(197, 197, 197); fill-opacity: 1;"/></g></g><g id="shape-55192aa2-916b-803d-8008-15be80ccd1eb"><g class="fills" id="fills-55192aa2-916b-803d-8008-15be80ccd1eb"><rect rx="25" ry="25" x="1852" y="392.9999999999999" transform="matrix(1.000000, 0.000000, 0.000000, 1.000000, 0.000000, 0.000000)" width="50" height="50" style="fill: rgb(197, 197, 197); fill-opacity: 1;"/></g></g><g id="shape-55192aa2-916b-803d-8008-15be8a24311c"><g class="fills" id="fills-55192aa2-916b-803d-8008-15be8a24311c"><rect rx="25" ry="25" x="1902" y="342.9999999999998" transform="matrix(1.000000, 0.000000, 0.000000, 1.000000, 0.000000, 0.000000)" width="50" height="50" style="fill: rgb(197, 197, 197); fill-opacity: 1;"/></g></g><g id="shape-55192aa2-916b-803d-8008-15be8a24311d"><g class="fills" id="fills-55192aa2-916b-803d-8008-15be8a24311d"><rect rx="25" ry="25" x="1952" y="292.9999999999998" transform="matrix(1.000000, 0.000000, 0.000000, 1.000000, 0.000000, 0.000000)" width="50" height="50" style="fill: rgb(197, 197, 197); fill-opacity: 1;"/></g></g><g id="shape-55192aa2-916b-803d-8008-15be9fd36660"><g class="fills" id="fills-55192aa2-916b-803d-8008-15be9fd36660"><rect rx="25" ry="25" x="2002" y="242.99999999999977" transform="matrix(1.000000, 0.000000, 0.000000, 1.000000, 0.000000, 0.000000)" width="50" height="50" style="fill: rgb(197, 197, 197); fill-opacity: 1;"/></g></g><g id="shape-55192aa2-916b-803d-8008-15bead46a915"><g class="fills" id="fills-55192aa2-916b-803d-8008-15bead46a915"><rect rx="25" ry="25" x="1852" y="292.9999999999998" transform="matrix(1.000000, 0.000000, 0.000000, 1.000000, 0.000000, 0.000000)" width="50" height="50" style="fill: rgb(197, 197, 197); fill-opacity: 1;"/></g></g><g id="shape-55192aa2-916b-803d-8008-15bebba1c19e"><g class="fills" id="fills-55192aa2-916b-803d-8008-15bebba1c19e"><rect rx="25" ry="25" x="2002" y="442.9999999999998" transform="matrix(1.000000, 0.000000, 0.000000, 1.000000, 0.000000, 0.000000)" width="50" height="50" style="fill: rgb(197, 197, 197); fill-opacity: 1;"/></g></g><g id="shape-55192aa2-916b-803d-8008-15bec5214551"><g class="fills" id="fills-55192aa2-916b-803d-8008-15bec5214551"><rect rx="25" ry="25" x="1802" y="242.99999999999977" transform="matrix(1.000000, 0.000000, 0.000000, 1.000000, 0.000000, 0.000000)" width="50" height="50" style="fill: rgb(197, 197, 197); fill-opacity: 1;"/></g></g><g id="shape-55192aa2-916b-803d-8008-15bebba1c19f"><g class="fills" id="fills-55192aa2-916b-803d-8008-15bebba1c19f"><rect rx="25" ry="25" x="1952" y="392.9999999999998" transform="matrix(1.000000, 0.000000, 0.000000, 1.000000, 0.000000, 0.000000)" width="50" height="50" style="fill: rgb(197, 197, 197); fill-opacity: 1;"/></g></g><g id="shape-55192aa2-916b-803d-8008-15bd33400fc8"><g class="fills" id="fills-55192aa2-916b-803d-8008-15bd33400fc8"><rect rx="0" ry="0" x="427" y="92.99999999999994" transform="matrix(1.000000, 0.000000, 0.000000, 1.000000, 0.000000, 0.000000)" width="50" height="400.0000000000003" style="fill: rgb(85, 85, 87); fill-opacity: 1;"/></g></g><g id="shape-55192aa2-916b-803d-8008-15be5e654efc"><g class="fills" id="fills-55192aa2-916b-803d-8008-15be5e654efc"><rect rx="0" ry="0" x="1327" y="93" transform="matrix(1.000000, 0.000000, 0.000000, 1.000000, 0.000000, 0.000000)" width="50" height="400.0000000000002" style="fill: rgb(175, 176, 179); fill-opacity: 1;"/></g></g><g id="shape-55192aa2-916b-803d-8008-15be5e654efd"><g class="fills" id="fills-55192aa2-916b-803d-8008-15be5e654efd"><rect rx="0" ry="0" x="1477" y="143" transform="matrix(1.000000, 0.000000, 0.000000, 1.000000, 0.000000, 0.000000)" width="50" height="349.9999999999999" style="fill: rgb(143, 144, 146); fill-opacity: 1;"/></g></g><g id="shape-55192aa2-916b-803d-8008-15be5e654efe"><g class="fills" id="fills-55192aa2-916b-803d-8008-15be5e654efe"><rect rx="0" ry="0" x="1727" y="193" transform="matrix(1.000000, 0.000000, 0.000000, 1.000000, 0.000000, 0.000000)" width="50" height="300" style="fill: rgb(175, 176, 179); fill-opacity: 1;"/></g></g><g id="shape-55192aa2-916b-803d-8008-15be5e654eff"><g class="fills" id="fills-55192aa2-916b-803d-8008-15be5e654eff"><rect rx="25" ry="25" x="1727" y="93" transform="matrix(1.000000, 0.000000, 0.000000, 1.000000, 0.000000, 0.000000)" width="50" height="50" style="fill: rgb(197, 197, 197); fill-opacity: 1;"/></g></g><g id="shape-55192aa2-916b-803d-8008-15be5e654f00"><g class="fills" id="fills-55192aa2-916b-803d-8008-15be5e654f00"><rect rx="0" ry="0" x="1627" y="93" transform="matrix(1.000000, 0.000000, 0.000000, 1.000000, 0.000000, 0.000000)" width="50" height="400.0000000000002" style="fill: rgb(85, 85, 87); fill-opacity: 1;"/></g></g><g id="shape-55192aa2-916b-803d-8008-15bdbaa85c2a"><g class="fills" id="fills-55192aa2-916b-803d-8008-15bdbaa85c2a"><rect rx="0" ry="0" x="877" y="243" transform="matrix(1.000000, 0.000000, 0.000000, 1.000000, 0.000000, 0.000000)" width="50" height="250" style="fill: rgb(175, 176, 179); fill-opacity: 1;"/></g></g><g id="shape-55192aa2-916b-803d-8008-15bf4ac1c3ae"><g class="fills" id="fills-55192aa2-916b-803d-8008-15bf4ac1c3ae"><rect rx="25" ry="25" x="2402" y="292.9999999999998" transform="matrix(1.000000, 0.000000, 0.000000, 1.000000, 0.000000, 0.000000)" width="50" height="50" style="fill: rgb(197, 197, 197); fill-opacity: 1;"/></g></g><g id="shape-55192aa2-916b-803d-8008-15bf4ac1c3af"><g class="fills" id="fills-55192aa2-916b-803d-8008-15bf4ac1c3af"><rect rx="25" ry="25" x="2452" y="242.99999999999977" transform="matrix(1.000000, 0.000000, 0.000000, 1.000000, 0.000000, 0.000000)" width="50" height="50" style="fill: rgb(197, 197, 197); fill-opacity: 1;"/></g></g><g id="shape-55192aa2-916b-803d-8008-15bf4ac1c3b0"><g class="fills" id="fills-55192aa2-916b-803d-8008-15bf4ac1c3b0"><rect rx="0" ry="0" x="2352" y="242.99999999999977" transform="matrix(1.000000, 0.000000, 0.000000, 1.000000, 0.000000, 0.000000)" width="50" height="250" style="fill: rgb(175, 176, 179); fill-opacity: 1;"/></g></g></g></g></g></g></g></g></svg>